# xmcd CD database file
#
# Track frame offsets:
#	150
#	28272
#	52220
#	77745
#	102512
#	126457
#	145732
#	164105
#	189032
#	216490
#	245540
#	267510
#
# Disc length: 3821 seconds
#
# Revision: 1
# Processed by: cddbd v1.5.1PL0 Copyright (c) Steve Scherf et al.
# Submitted via: CDex 1.51
#
DISCID=be0eeb0c
DTITLE=Karel Boehlee Trio - Silent Nocturne
DYEAR=2004
DGENRE=Jazz
TTITLE0=Another Life
TTITLE1=Nocturne Opus 9
TTITLE2=Orange City
TTITLE3=Good Morning Heartahe
TTITLE4=Northern Moon
TTITLE5=Telkens Weer
TTITLE6=Amazing You
TTITLE7=What Are You Doing The Rest Of Your Life
TTITLE8=Wherever You Might Go
TTITLE9=It Never Entered My Mind
TTITLE10=Song For Sad
TTITLE11=A Thousand Stories
EXTD=YEAR: 2004
EXTT0=
EXTT1=
EXTT2=
EXTT3=
EXTT4=
EXTT5=
EXTT6=
EXTT7=
EXTT8=
EXTT9=
EXTT10=
EXTT11=
PLAYORDER=
